<?xml version="1.0" encoding="utf-8"?>
<!-- Generator: Adobe Illustrator 19.0.0, SVG Export Plug-In . SVG Version: 6.00 Build 0)  -->
<svg version="1.1" id="Layer_1" xmlns="http://www.w3.org/2000/svg" xmlns:xlink="http://www.w3.org/1999/xlink" x="0px" y="0px"
	 viewBox="-703 705 512 512" style="enable-background:new -703 705 512 512;" xml:space="preserve">
<style type="text/css">
	.st0{fill:#4191CF;}
</style>
<g>
	<g>
		<path class="st0" d="M-330.7,755.8h-343.5c-15.9,0-28.8,12.9-28.8,28.8v206.1c0,15.9,12.9,28.8,28.8,28.8h22.3v76.7
			c0,4.9,2.9,9.3,7.5,11.2c1.5,0.6,3.1,0.9,4.6,0.9c3.1,0,6.2-1.2,8.5-3.5l85.3-85.3h17.1c6.7,0,12.1-5.4,12.1-12.1
			c0-6.7-5.4-12.1-12.1-12.1c0,0-22.7,0-22.9,0c-2.8,0.2-5.6,1.3-7.7,3.5l-68.2,68.2c0,0,0-60.4-0.1-60.7c-0.5-6.2-5.7-11-12-11
			h-34.3c-2.6,0-4.7-2.1-4.7-4.7V784.6c0-2.6,2.1-4.7,4.7-4.7h343.5c2.6,0,4.7,2.1,4.7,4.7v79.1c0,6.7,5.4,12.1,12.1,12.1
			s12.1-5.4,12.1-12.1v-79.1C-301.9,768.7-314.8,755.8-330.7,755.8z"/>
	</g>
</g>
<g>
	<g>
		<path class="st0" d="M-219.8,903.5h-240.4c-15.9,0-28.8,12.9-28.8,28.8v140.6c0,15.9,12.9,28.8,28.8,28.8h150.5l61,61
			c2.3,2.3,5.4,3.5,8.5,3.5c1.6,0,3.1-0.3,4.6-0.9c4.5-1.9,7.5-6.3,7.5-11.2v-52.4h8.3c15.9,0,28.8-12.9,28.8-28.8V932.3
			C-191,916.4-203.9,903.5-219.8,903.5z M-215.2,1072.9c0,2.6-2.1,4.7-4.7,4.7h-20.4c-6.4,0-11.6,4.9-12,11.1
			c0,0.3-0.1,36.3-0.1,36.3l-43.9-43.9c0,0-0.1-0.1-0.1-0.1c-0.2-0.2-0.3-0.3-0.5-0.4c-2.1-1.9-4.9-3-8-3h-155.5
			c-2.6,0-4.7-2.1-4.7-4.7V932.3c0-2.6,2.1-4.7,4.7-4.7h240.4c2.6,0,4.7,2.1,4.7,4.7V1072.9z"/>
	</g>
</g>
<g>
	<g>
		<path class="st0" d="M-340,990.5c-6.7,0-12.1,5.4-12.1,12.1s5.4,12.1,12.1,12.1c6.7,0,12.1-5.4,12.1-12.1S-333.4,990.5-340,990.5z
			"/>
	</g>
</g>
<g>
	<g>
		<path class="st0" d="M-392.5,835.6h-219.8c-6.7,0-12.1,5.4-12.1,12.1c0,6.7,5.4,12.1,12.1,12.1h219.8c6.7,0,12.1-5.4,12.1-12.1
			C-380.5,841-385.9,835.6-392.5,835.6z"/>
	</g>
</g>
<g>
	<g>
		<path class="st0" d="M-528.9,915.5h-83.4c-6.7,0-12.1,5.4-12.1,12.1c0,6.7,5.4,12.1,12.1,12.1h83.4c6.7,0,12.1-5.4,12.1-12.1
			C-516.8,920.9-522.3,915.5-528.9,915.5z"/>
	</g>
</g>
<g>
	<g>
		<path class="st0" d="M-396.2,990.5c-6.7,0-12.1,5.4-12.1,12.1s5.4,12.1,12.1,12.1c6.7,0,12.1-5.4,12.1-12.1
			S-389.5,990.5-396.2,990.5z"/>
	</g>
</g>
<g>
	<g>
		<path class="st0" d="M-283.9,990.5c-6.7,0-12.1,5.4-12.1,12.1s5.4,12.1,12.1,12.1c6.7,0,12.1-5.4,12.1-12.1
			S-277.3,990.5-283.9,990.5z"/>
	</g>
</g>
</svg>
