<?xml version="1.0" encoding="utf-8"?>
<!-- Generator: Adobe Illustrator 19.0.0, SVG Export Plug-In . SVG Version: 6.00 Build 0)  -->
<svg version="1.1" id="Layer_1" xmlns="http://www.w3.org/2000/svg" xmlns:xlink="http://www.w3.org/1999/xlink" x="0px" y="0px"
	 viewBox="-713 715.5 491.5 491.5" style="enable-background:new -713 715.5 491.5 491.5;" xml:space="preserve">
<style type="text/css">
	.st0{fill:#4191CF;}
</style>
<g>
	<g>
		<path class="st0" d="M-291.2,873.5c4.4-14.1,6.2-28.8,5.3-43.8c-3.6-62.5-56.6-113.8-118-114.3c-0.3,0-0.6,0-1,0
			c-49.6,0-93.9,31.9-111.3,78.1c-18.2-15.1-41.6-22.4-65.6-20.1c-34,3.4-63.7,27.3-75.6,60.9c-5.3,15-6.6,30.3-3.9,45.8
			c-31.3,15.4-51.8,48-51.8,83.9c0,51.7,38.8,89.3,92.2,89.3v-20.5c-42.2,0-71.7-28.3-71.7-68.8c0-30.4,18.8-57.8,46.7-68.3l8.7-3.3
			l-2.4-9c-3.9-14.3-3.4-28.6,1.5-42.3c9.2-26.1,32.1-44.7,58.3-47.3c23.1-2.3,45.8,7.3,60.5,25.6l13.5,16.8l4.5-21.1
			c9.9-46.1,50.3-79.3,96.4-79.3c0.3,0,0.5,0,0.8,0c50.9,0.4,94.7,43,97.7,95c0.9,16.1-1.8,31.8-8.1,46.6l-5.5,12.9l13.9,1.4
			c36.5,3.6,64.1,34.7,64.1,72.4c0,40.5-29.5,68.8-71.7,68.8v20.5c53.4,0,92.2-37.6,92.2-89.3C-221.5,920.3-250.7,883.5-291.2,873.5
			z"/>
	</g>
</g>
<g>
	<g>
		<path class="st0" d="M-323.9,1032.9V930.5h-286.7v102.4h51.2v20.5h-51.2v102.4h46.1v30.7h-35.8v20.5h266.2v-20.5H-370v-30.7h46.1
			v-102.4h-41v-20.5H-323.9z M-390.4,1186.5H-544v-30.7h153.6V1186.5z M-344.4,1073.9v61.4h-245.8v-61.4H-344.4z M-538.9,1053.4
			v-20.5h153.6v20.5H-538.9z M-590.1,1012.4V951h245.8v61.4H-590.1z"/>
	</g>
</g>
<g>
	<g>
		<rect x="-569.6" y="971.5" class="st0" width="81.9" height="20.5"/>
	</g>
</g>
<g>
	<g>
		<rect x="-385.3" y="971.5" class="st0" width="20.5" height="20.5"/>
	</g>
</g>
<g>
	<g>
		<rect x="-426.3" y="971.5" class="st0" width="20.5" height="20.5"/>
	</g>
</g>
<g>
	<g>
		<rect x="-569.6" y="1094.4" class="st0" width="81.9" height="20.5"/>
	</g>
</g>
<g>
	<g>
		<rect x="-385.3" y="1094.4" class="st0" width="20.5" height="20.5"/>
	</g>
</g>
<g>
	<g>
		<rect x="-426.3" y="1094.4" class="st0" width="20.5" height="20.5"/>
	</g>
</g>
</svg>
