<?xml version="1.0" encoding="utf-8"?>
<!-- Generator: Adobe Illustrator 19.0.0, SVG Export Plug-In . SVG Version: 6.00 Build 0)  -->
<svg version="1.1" id="Layer_1" xmlns="http://www.w3.org/2000/svg" xmlns:xlink="http://www.w3.org/1999/xlink" x="0px" y="0px"
	 viewBox="-707 709.9 503.1 503.1" style="enable-background:new -707 709.9 503.1 503.1;" xml:space="preserve">
<style type="text/css">
	.st0{fill:#4191CF;}
</style>
<g>
	<g>
		<g>
			<path class="st0" d="M-242.3,977.5h-5.4v-264h-416v264h-5.4l-37.8,96h35.2v136h272h16h144v-136h35.8L-242.3,977.5z M-647.8,729.5
				h384v48h-384V729.5L-647.8,729.5z M-647.8,793.5h384v184h-48v-48h-28.4c-2.6-9.4-6.4-18.5-11.3-27.1l20.1-20.1l-45.3-45.3
				l-20.1,20.1c-8.6-4.9-17.6-8.6-27.1-11.3v-28.4h-64v28.4c-9.4,2.6-18.5,6.4-27.1,11.3l-20.1-20.1l-45.3,45.3l20.1,20.1
				c-4.9,8.6-8.7,17.7-11.3,27.1h-28.4v48h-48V793.5L-647.8,793.5z M-683.5,1057.5l25.2-64h254.7l-25.6,64H-683.5z M-399.8,1193.5
				h-256v-120h237.4l18.6-46.5V1193.5z M-402.1,977.5h-107.3c-1.6-5.2-2.4-10.6-2.4-16c0-30.9,25.1-56,56-56s56,25.1,56,56
				C-399.8,966.9-400.5,972.3-402.1,977.5z M-385.6,977.5c1.2-5.2,1.9-10.6,1.9-16c0-39.7-32.3-72-72-72s-72,32.3-72,72
				c0,5.4,0.7,10.8,1.9,16h-57.9v-32h25.1l1.4-6.3c2.6-12,7.3-23.3,14-33.7l3.5-5.4l-17.8-17.8l22.6-22.6l17.8,17.8l5.4-3.5
				c10.4-6.7,21.8-11.4,33.7-14l6.3-1.4v-25.1h32v25.1l6.3,1.4c12,2.6,23.3,7.3,33.7,14l5.4,3.5l17.8-17.8l22.6,22.6l-17.8,17.8
				l3.5,5.4c6.7,10.4,11.4,21.8,14,33.7l1.4,6.3h25.1v32h-56H-385.6z M-255.8,1193.5h-128V1027l18.6,46.5h109.4V1193.5z
				 M-354.3,1057.5l-25.6-64h126.8l25.6,64H-354.3z"/>
			<rect x="-631.8" y="745.5" class="st0" width="16" height="16"/>
			<rect x="-599.8" y="745.5" class="st0" width="16" height="16"/>
			<rect x="-567.8" y="745.5" class="st0" width="16" height="16"/>
			<rect x="-431.8" y="1161.5" class="st0" width="16" height="16"/>
			<rect x="-463.8" y="1161.5" class="st0" width="16" height="16"/>
			<rect x="-495.8" y="1161.5" class="st0" width="16" height="16"/>
		</g>
	</g>
</g>
</svg>
