<?xml version="1.0" encoding="utf-8"?>
<!-- Generator: Adobe Illustrator 19.0.0, SVG Export Plug-In . SVG Version: 6.00 Build 0)  -->
<svg version="1.1" id="Layer_1" xmlns="http://www.w3.org/2000/svg" xmlns:xlink="http://www.w3.org/1999/xlink" x="0px" y="0px"
	 viewBox="-703 705 512 512" style="enable-background:new -703 705 512 512;" xml:space="preserve">
<style type="text/css">
	.st0{fill:#4191CF;}
</style>
<g>
	<g>
		<path class="st0" d="M-195.5,1036.7c1.6-3.4,0.7-7.5-2.2-10l-30.8-26c-1.5-1.3-3.4-2-5.4-2h-61.6h-61.5c-2,0-3.9,0.7-5.4,2
			l-30.8,26c-2.9,2.5-3.8,6.6-2.2,10c0.2,0.4,16.6,35.8,6.2,57.8c-9.2,19.4-9,46.2,0.4,65.2c6.6,13.3,17,21.8,30,24.5
			c28.3,6,57.6,30.5,57.9,30.7c0.4,0.3,0.9,0.5,1.4,0.8c0.3,0.2,0.6,0.4,0.9,0.5c1,0.4,2.1,0.7,3.2,0.7c0,0,0,0,0,0c0,0,0,0,0,0
			c1.1,0,2.1-0.3,3.2-0.7c0.3-0.1,0.6-0.3,0.9-0.5c0.5-0.3,0.9-0.4,1.3-0.8c0.3-0.2,29.6-24.7,57.9-30.7c13.1-2.8,23.5-11.2,30-24.5
			c9.4-19,9.6-45.9,0.4-65.2C-212.1,1072.5-195.6,1037.1-195.5,1036.7z M-217.1,1152.3c-4.3,8.6-10.5,13.9-18.5,15.6
			c-25,5.3-49.3,22-59.8,30c-10.5-8-34.8-24.7-59.8-30c-8-1.7-14.2-6.9-18.5-15.6c-7.1-14.3-7.2-36-0.3-50.6
			c10.9-23,1.4-53.4-3.6-66.1l23.7-20h58.5h58.5l23.7,20c-5,12.8-14.5,43.1-3.6,66.1C-209.9,1116.3-210,1138.1-217.1,1152.3z"/>
	</g>
</g>
<g>
	<g>
		<path class="st0" d="M-241.6,1081.5c-1-3-3.6-5.2-6.8-5.7l-28.9-4.2l-12.9-26.2c-1.4-2.9-4.3-4.7-7.5-4.7c-3.2,0-6.1,1.8-7.5,4.7
			l-12.9,26.2l-28.9,4.2c-3.2,0.5-5.8,2.7-6.8,5.7c-1,3-0.2,6.4,2.1,8.6l20.9,20.4l-4.9,28.8c-0.5,3.1,0.8,6.3,3.3,8.2
			c2.6,1.9,6,2.1,8.8,0.6l25.8-13.6l25.8,13.6c1.2,0.6,2.6,1,3.9,1c1.7,0,3.5-0.5,4.9-1.6c2.6-1.9,3.9-5.1,3.3-8.2l-4.9-28.8
			l20.9-20.4C-241.4,1087.9-240.6,1084.5-241.6,1081.5z M-279.5,1101.5c-2,1.9-2.9,4.7-2.4,7.4l2.8,16.3l-14.7-7.7
			c-1.2-0.6-2.6-1-3.9-1s-2.7,0.3-3.9,1l-14.7,7.7l2.8-16.3c0.5-2.7-0.4-5.5-2.4-7.4l-11.9-11.6l16.4-2.4c2.7-0.4,5.1-2.1,6.3-4.6
			l7.3-14.9l7.3,14.9c1.2,2.5,3.6,4.2,6.3,4.6l16.4,2.4L-279.5,1101.5z"/>
	</g>
</g>
<g>
	<g>
		<path class="st0" d="M-219.8,705h-453.3c-13.9,0-26.2,11.3-26.2,25.2v83.8c0,13.9,12.3,25.2,26.2,25.2h453.3
			c13.9,0,24.1-11.3,24.1-25.2v-83.8C-195.7,716.3-206,705-219.8,705z M-212.5,814.1c0,4.7-2.7,8.4-7.3,8.4h-453.3
			c-4.6,0-9.4-3.8-9.4-8.4v-83.8c0-4.7,4.8-8.4,9.4-8.4h453.3c4.6,0,7.3,3.8,7.3,8.4V814.1z"/>
	</g>
</g>
<g>
	<g>
		<path class="st0" d="M-219.8,847.7h-453.3c-13.9,0-26.2,11.3-26.2,25.2v83.8c0,13.9,12.3,25.2,26.2,25.2h453.3
			c13.9,0,24.1-11.3,24.1-25.2v-83.8C-195.7,859-206,847.7-219.8,847.7z M-212.5,956.8c0,4.7-2.7,8.4-7.3,8.4h-453.3
			c-4.6,0-9.4-3.8-9.4-8.4v-83.8c0-4.7,4.8-8.4,9.4-8.4h453.3c4.6,0,7.3,3.8,7.3,8.4V956.8z"/>
	</g>
</g>
<g>
	<g>
		<path class="st0" d="M-426.3,1107.9h-246.8c-4.6,0-9.5-3.8-9.5-8.4v-83.8c0-4.7,4.8-8.4,9.4-8.4h244.9c4.6,0,8.4-3.8,8.4-8.4
			s-3.8-8.4-8.4-8.4h-244.9c-13.9,0-26.2,11.3-26.2,25.2v83.8c0,13.9,12.3,25.2,26.2,25.2h246.8c4.6,0,8.4-3.8,8.4-8.4
			C-417.9,1111.6-421.6,1107.9-426.3,1107.9z"/>
	</g>
</g>
<g>
	<g>
		<path class="st0" d="M-261.8,738.6c-18.5,0-33.6,15.1-33.6,33.6c0,18.5,15.1,33.6,33.6,33.6c18.5,0,33.6-15.1,33.6-33.6
			C-228.2,753.6-243.3,738.6-261.8,738.6z M-261.8,788.9c-9.3,0-16.8-7.5-16.8-16.8c0-9.3,7.5-16.8,16.8-16.8s16.8,7.5,16.8,16.8
			C-245,781.4-252.6,788.9-261.8,788.9z"/>
	</g>
</g>
<g>
	<g>
		<path class="st0" d="M-261.8,881.3c-18.5,0-33.6,15.1-33.6,33.6s15.1,33.6,33.6,33.6c18.5,0,33.6-15.1,33.6-33.6
			S-243.3,881.3-261.8,881.3z M-261.8,931.6c-9.3,0-16.8-7.5-16.8-16.8s7.5-16.8,16.8-16.8s16.8,7.5,16.8,16.8
			S-252.6,931.6-261.8,931.6z"/>
	</g>
</g>
<g>
	<g>
		<path class="st0" d="M-639.5,747c-13.9,0-25.2,11.3-25.2,25.2c0,13.9,11.3,25.2,25.2,25.2s25.2-11.3,25.2-25.2
			C-614.3,758.3-625.6,747-639.5,747z M-639.5,780.5c-4.6,0-8.4-3.8-8.4-8.4s3.8-8.4,8.4-8.4s8.4,3.8,8.4,8.4
			S-634.9,780.5-639.5,780.5z"/>
	</g>
</g>
<g>
	<g>
		<path class="st0" d="M-639.5,889.7c-13.9,0-25.2,11.3-25.2,25.2s11.3,25.2,25.2,25.2s25.2-11.3,25.2-25.2
			S-625.6,889.7-639.5,889.7z M-639.5,923.2c-4.6,0-8.4-3.8-8.4-8.4s3.8-8.4,8.4-8.4s8.4,3.8,8.4,8.4S-634.9,923.2-639.5,923.2z"/>
	</g>
</g>
<g>
	<g>
		<path class="st0" d="M-639.5,1032.3c-13.9,0-25.2,11.3-25.2,25.2c0,13.9,11.3,25.2,25.2,25.2s25.2-11.3,25.2-25.2
			C-614.3,1043.6-625.6,1032.3-639.5,1032.3z M-639.5,1065.9c-4.6,0-8.4-3.8-8.4-8.4s3.8-8.4,8.4-8.4s8.4,3.8,8.4,8.4
			S-634.9,1065.9-639.5,1065.9z"/>
	</g>
</g>
<g>
	<g>
		<path class="st0" d="M-572.4,747c-13.9,0-25.2,11.3-25.2,25.2c0,13.9,11.3,25.2,25.2,25.2c13.9,0,25.2-11.3,25.2-25.2
			C-547.2,758.3-558.5,747-572.4,747z M-572.4,780.5c-4.6,0-8.4-3.8-8.4-8.4s3.8-8.4,8.4-8.4c4.6,0,8.4,3.8,8.4,8.4
			C-564,776.8-567.7,780.5-572.4,780.5z"/>
	</g>
</g>
<g>
	<g>
		<path class="st0" d="M-572.4,889.7c-13.9,0-25.2,11.3-25.2,25.2s11.3,25.2,25.2,25.2c13.9,0,25.2-11.3,25.2-25.2
			C-547.2,901-558.5,889.7-572.4,889.7z M-572.4,923.2c-4.6,0-8.4-3.8-8.4-8.4s3.8-8.4,8.4-8.4c4.6,0,8.4,3.8,8.4,8.4
			S-567.7,923.2-572.4,923.2z"/>
	</g>
</g>
<g>
	<g>
		<path class="st0" d="M-572.4,1032.3c-13.9,0-25.2,11.3-25.2,25.2c0,13.9,11.3,25.2,25.2,25.2c13.9,0,25.2-11.3,25.2-25.2
			C-547.2,1043.6-558.5,1032.3-572.4,1032.3z M-572.4,1065.9c-4.6,0-8.4-3.8-8.4-8.4s3.8-8.4,8.4-8.4c4.6,0,8.4,3.8,8.4,8.4
			C-564,1062.2-567.7,1065.9-572.4,1065.9z"/>
	</g>
</g>
<g>
	<g>
		<path class="st0" d="M-496.8,747c-13.9,0-25.2,11.3-25.2,25.2c0,13.9,11.3,25.2,25.2,25.2s25.2-11.3,25.2-25.2
			C-471.7,758.3-483,747-496.8,747z M-496.8,780.5c-4.6,0-8.4-3.8-8.4-8.4s3.8-8.4,8.4-8.4c4.6,0,8.4,3.8,8.4,8.4
			C-488.4,776.8-492.2,780.5-496.8,780.5z"/>
	</g>
</g>
<g>
	<g>
		<path class="st0" d="M-496.8,889.7c-13.9,0-25.2,11.3-25.2,25.2s11.3,25.2,25.2,25.2s25.2-11.3,25.2-25.2
			C-471.7,901-483,889.7-496.8,889.7z M-496.8,923.2c-4.6,0-8.4-3.8-8.4-8.4s3.8-8.4,8.4-8.4c4.6,0,8.4,3.8,8.4,8.4
			S-492.2,923.2-496.8,923.2z"/>
	</g>
</g>
<g>
	<g>
		<path class="st0" d="M-496.8,1032.3c-13.9,0-25.2,11.3-25.2,25.2c0,13.9,11.3,25.2,25.2,25.2s25.2-11.3,25.2-25.2
			C-471.7,1043.6-483,1032.3-496.8,1032.3z M-496.8,1065.9c-4.6,0-8.4-3.8-8.4-8.4s3.8-8.4,8.4-8.4c4.6,0,8.4,3.8,8.4,8.4
			C-488.4,1062.2-492.2,1065.9-496.8,1065.9z"/>
	</g>
</g>
</svg>
