<?xml version="1.0" encoding="utf-8"?>
<!-- Generator: Adobe Illustrator 19.0.0, SVG Export Plug-In . SVG Version: 6.00 Build 0)  -->
<svg version="1.1" id="Capa_1" xmlns="http://www.w3.org/2000/svg" xmlns:xlink="http://www.w3.org/1999/xlink" x="0px" y="0px"
	 viewBox="-759 761.6 399.4 399.4" style="enable-background:new -759 761.6 399.4 399.4;" xml:space="preserve">
<style type="text/css">
	.st0{fill:#4191CF;}
</style>
<path class="st0" d="M-489.9,788.8c-3.2-3.8-2.8-9.5,1-12.7l14.5-12.4c3.8-3.2,9.5-2.8,12.7,1c3.2,3.8,2.8,9.5-1,12.7l-14.5,12.4
	c-1.7,1.4-3.8,2.1-5.8,2.1C-485.6,791.9-488.1,790.9-489.9,788.8z M-463.7,826.8c-5,0-9,4-9.1,8.9c0,5,4,9.1,8.9,9.1l19.1,0.2
	c0,0,0,0,0.1,0c4.9,0,9-4,9-9c0-5-4-9-8.9-9.1L-463.7,826.8z M-475.2,810c1.3,3.7,4.8,5.9,8.5,5.9c1,0,2.1-0.2,3.1-0.5l31.6-11.5
	c4.7-1.7,7.1-6.9,5.4-11.5c-1.7-4.7-6.9-7.1-11.5-5.4l-31.6,11.5C-474.4,800.2-476.9,805.3-475.2,810z M-539.7,1094.9
	c-0.9,4.8-3.2,10.4-6.3,15.8c-8.6,15-19.1,21.5-27.5,17.2l-13.2-5.9c-5.1,3.8-10.5,7-16.3,9.4l-1.5,14.3
	c-0.4,9.4-11.3,15.2-28.7,15.2c-17.3,0-28.2-5.8-28.7-15.2l-1.5-14.4c-5.8-2.5-11.3-5.6-16.3-9.4l-13.2,5.9
	c-8.4,4.3-18.8-2.2-27.5-17.2c-8.6-15-9.1-27.3-1.2-32.4l11.6-8.4c-0.4-3.2-0.6-6.4-0.6-9.5c0-3.1,0.2-6.3,0.6-9.4l-11.7-8.4
	c-7.9-5.1-7.4-17.4,1.2-32.4c8.7-15,19.1-21.5,27.5-17.2l13,5.8c5.1-3.9,10.6-7.1,16.5-9.5l1.5-14.2c0.5-9.4,11.4-15.2,28.7-15.2
	c17.3,0,28.2,5.8,28.7,15.2l1.5,14.2c5.9,2.5,11.4,5.7,16.5,9.5l13.1-5.8c8.4-4.3,18.8,2.3,27.5,17.2c3.1,5.4,5.3,11,6.3,15.8
	c1.9,10.1-2.1,14.6-5.1,16.6l-11.6,8.4c0.4,3.1,0.6,6.3,0.6,9.4c0,3.2-0.2,6.4-0.6,9.6l11.6,8.4
	C-541.8,1080.2-537.8,1084.8-539.7,1094.9z M-571.5,1039.6l14.1-10.2c-0.4-2.1-1.6-5.8-4.2-10.3c-2.6-4.5-5.2-7.4-6.8-8.8l-15.9,7.1
	c-3.2,1.4-7,0.9-9.6-1.5c-6-5.3-12.8-9.3-20.4-11.8c-3.3-1.1-5.7-4.1-6.1-7.6l-1.8-17.2c-2-0.7-5.8-1.5-11-1.5c-5.2,0-9,0.8-11,1.5
	l-1.8,17.2c-0.4,3.5-2.7,6.5-6.1,7.6c-7.5,2.5-14.4,6.5-20.4,11.8c-2.6,2.3-6.4,2.9-9.6,1.5l-15.9-7.1c-1.6,1.4-4.2,4.3-6.8,8.8
	c-2.6,4.5-3.8,8.2-4.2,10.3l14.1,10.2c2.8,2.1,4.2,5.6,3.5,9.1c-0.8,3.8-1.2,7.8-1.2,11.7c0,4,0.4,7.9,1.2,11.8
	c0.7,3.5-0.7,7-3.5,9.1l-14.1,10.2c0.4,2.1,1.6,5.8,4.2,10.3c2.6,4.5,5.2,7.4,6.8,8.8l16-7.1c3.2-1.4,7-0.9,9.6,1.5
	c6,5.3,12.8,9.2,20.3,11.7c3.3,1.1,5.7,4.1,6.1,7.6l1.8,17.4c2,0.7,5.8,1.5,11,1.5c5.2,0,9-0.8,11-1.5l1.8-17.4
	c0.4-3.5,2.7-6.5,6.1-7.6c7.5-2.5,14.3-6.4,20.2-11.7c2.6-2.3,6.4-2.9,9.6-1.5l16,7.1c1.6-1.4,4.2-4.3,6.8-8.8
	c2.6-4.5,3.8-8.2,4.2-10.3l-14.1-10.2c-2.9-2.1-4.2-5.6-3.5-9.1c0.8-3.9,1.2-7.8,1.2-11.8c0-3.9-0.4-7.9-1.2-11.7
	C-575.7,1045.2-574.3,1041.6-571.5,1039.6z M-598.9,1060.3c0,18.9-15.4,34.2-34.2,34.2c-18.9,0-34.2-15.4-34.2-34.2
	c0-18.9,15.4-34.2,34.2-34.2C-614.3,1026-598.9,1041.4-598.9,1060.3z M-616.9,1060.3c0-9-7.3-16.2-16.2-16.2
	c-9,0-16.2,7.3-16.2,16.2c0,9,7.3,16.2,16.2,16.2C-624.2,1076.5-616.9,1069.2-616.9,1060.3z M-392.7,1115l-28.9-78.9
	c-0.1-0.4-0.3-0.8-0.5-1.1c-2.8-6.5-8.8-10.9-15.8-11.8c-4.4-0.5-8.7-0.8-12.9-1c-2-0.1-4.1-0.2-6.1-0.4c-7-0.5-13.1-1.5-18.6-2.9
	c-11.3-2.9-18.7-7.1-24-13.6c-9.5-11.5-24.5-52.5-24.7-67.5c-0.1-8.4,2.8-16.3,9.6-25.9c3.4-4.7,7.2-9.1,12.3-14.2
	c1.5-1.4,2.9-2.8,4.4-4.2c2.7-2.5,5.5-5.2,8.2-8c5.9-5.5,7.9-13.9,5.1-21.5l-28.9-78.9c-3.8-10.3-15.2-15.6-25.6-11.9l-20,7.3
	c-5.4,2-8.1,2.9-14.3,6.7c-36,22-55.7,64.6-55.6,120c0,9.9,0.7,20.3,2,30.8c0.6,4.9,5.1,8.4,10,7.8c4.9-0.6,8.4-5.1,7.8-10
	c-1.2-9.8-1.8-19.4-1.9-28.6c-0.1-48.9,16.5-86,47-104.6c4.7-2.9,6-3.3,11-5.2l20-7.3c1-0.4,2.1,0.1,2.5,1.1l28.9,78.9
	c0.3,0.9-0.1,1.7-0.5,2.1c-0.2,0.2-0.4,0.4-0.6,0.6c-2.4,2.5-5,5-7.7,7.5c-1.6,1.5-3.1,2.9-4.7,4.4c-5.9,5.8-10.5,11.1-14.5,16.7
	c-8.9,12.6-13,24.2-12.9,36.5c0.2,19.1,16.7,64,28.8,78.7c7.8,9.4,18.4,15.6,33.4,19.5c6.5,1.7,13.7,2.8,21.8,3.4
	c2.2,0.2,4.3,0.3,6.5,0.4c4,0.2,7.9,0.4,11.7,0.9c0.8,0.1,1.4,0.7,1.5,1.2c0.1,0.3,0.2,0.6,0.3,0.8l28.6,78.1c0.4,1-0.1,2.1-1.1,2.5
	l-18.2,6.7c-7,2.6-9.1,3.3-16.2,4.2c-24.5,3-48.9-4.6-72.6-22.7c-3.9-3-9.6-2.3-12.6,1.7c-3,3.9-2.3,9.6,1.7,12.6
	c23.3,17.8,48.4,27,73.3,27c4.1,0,8.3-0.3,12.4-0.8c8.8-1.1,12.4-2.3,20.2-5.2l18.2-6.7C-394.2,1136.8-388.9,1125.3-392.7,1115z"/>
</svg>
