<?xml version="1.0" encoding="utf-8"?>
<!-- Generator: Adobe Illustrator 19.0.0, SVG Export Plug-In . SVG Version: 6.00 Build 0)  -->
<svg version="1.1" id="Layer_1" xmlns="http://www.w3.org/2000/svg" xmlns:xlink="http://www.w3.org/1999/xlink" x="0px" y="0px"
	 viewBox="-714 715.4 490.6 490.6" style="enable-background:new -714 715.4 490.6 490.6;" xml:space="preserve">
<style type="text/css">
	.st0{fill:#4191CF;}
</style>
<g>
	<g>
		<path class="st0" d="M-387.2,902.7c14.8,0,26.8-12,26.8-26.8v-117c0-14.8-12-26.8-26.8-26.8h-163c-14.8,0-26.8,12-26.8,26.8v117
			c0,14.8,12,26.8,26.8,26.8h71.6v22.4h-22.9c-5.5,0-9.9,4.4-9.9,9.9s4.4,9.9,9.9,9.9h65.6c5.5,0,9.9-4.4,9.9-9.9s-4.4-9.9-9.9-9.9
			h-22.9v-22.4H-387.2z M-550.2,882.9c-3.9,0-7-3.1-7-7v-117c0-3.9,3.1-7,7-7h162.9c3.9,0,7,3.1,7,7v117c0,3.9-3.1,7-7,7H-550.2z"/>
		<path class="st0" d="M-524.2,976.6h-163c-14.8,0-26.8,12-26.8,26.8v117c0,14.8,12,26.8,26.8,26.8h71.6v22.4h-22.9
			c-5.5,0-9.9,4.4-9.9,9.9s4.4,9.9,9.9,9.9h65.6c5.5,0,9.9-4.4,9.9-9.9s-4.4-9.9-9.9-9.9h-22.9v-22.4h71.6c14.8,0,26.8-12,26.8-26.8
			v-117C-497.4,988.7-509.5,976.6-524.2,976.6z M-517.2,1120.4c0,3.9-3.1,7-7,7h-163c-3.9,0-7-3.1-7-7v-117c0-3.9,3.1-7,7-7h162.9
			c3.9,0,7,3.1,7,7L-517.2,1120.4L-517.2,1120.4z"/>
		<path class="st0" d="M-250.2,976.6h-163c-14.8,0-26.8,12-26.8,26.8v117c0,14.8,12,26.8,26.8,26.8h71.6v22.4h-22.9
			c-5.5,0-9.9,4.4-9.9,9.9s4.4,9.9,9.9,9.9h65.6c5.5,0,9.9-4.4,9.9-9.9s-4.4-9.9-9.9-9.9h-22.9v-22.4h71.6c14.8,0,26.8-12,26.8-26.8
			v-117C-223.4,988.7-235.5,976.6-250.2,976.6z M-243.2,1120.4c0,3.9-3.1,7-7,7h-163c-3.9,0-7-3.1-7-7v-117c0-3.9,3.1-7,7-7h162.9
			c3.9,0,7,3.1,7,7v117H-243.2z"/>
		<path class="st0" d="M-686.3,801.7V935c0,5.5,4.4,9.9,9.9,9.9s9.9-4.4,9.9-9.9V811.6h53.4c5.5,0,9.9-4.4,9.9-9.9s-4.4-9.9-9.9-9.9
			h-63.3C-681.8,791.8-686.3,796.3-686.3,801.7z"/>
		<path class="st0" d="M-261,945c5.5,0,9.9-4.4,9.9-9.9V801.7c0-5.5-4.4-9.9-9.9-9.9h-63.3c-5.5,0-9.9,4.4-9.9,9.9s4.4,9.9,9.9,9.9
			h53.4V935C-270.9,940.5-266.5,945-261,945z"/>
	</g>
</g>
</svg>
