<?xml version="1.0" encoding="utf-8"?>
<!-- Generator: Adobe Illustrator 19.0.0, SVG Export Plug-In . SVG Version: 6.00 Build 0)  -->
<svg version="1.1" id="Layer_1" xmlns="http://www.w3.org/2000/svg" xmlns:xlink="http://www.w3.org/1999/xlink" x="0px" y="0px"
	 viewBox="-813 925 292.9 72" style="enable-background:new -813 925 292.9 72;" xml:space="preserve">
<style type="text/css">
	.st0{fill:#6A7E8E;}
</style>
<g>
	<g>
		<g>
			<polygon class="st0" points="-762.3,981.3 -762.3,986.5 -751.3,980.6 -751.3,975.2 			"/>
			<polygon class="st0" points="-762.3,971.1 -762.3,976.2 -751.3,970.1 -751.3,965 			"/>
			<polygon class="st0" points="-762.2,960.8 -762.2,966 -751.3,959.9 -751.3,954.7 			"/>
		</g>
		<polygon class="st0" points="-781.7,979.4 -792.2,973.7 -792.2,978.6 -802.4,972.9 -802.4,949 -792.1,943 -782,949 -792.4,954.9 
			-782,961.3 -751.2,943.3 -761.4,937.1 -771.4,942.9 -781.6,936.9 -771.8,931.3 -782,925 -813,942.8 -813,978.8 -781.7,997 		"/>
	</g>
	<g>
		<path class="st0" d="M-698.2,962.9V983h-8.1v-19.5c0-3.6-2-4.8-4-4.8s-4.2,1-7.3,3V983h-8.1v-44.4h8.1v15.2
			c4.3-2.6,6.1-2.8,8.3-2.8C-702.9,951.1-698.2,956-698.2,962.9z"/>
		<path class="st0" d="M-680.7,983.3c-6.3,0-13.8-3.6-13.8-11.4v-9.3c0-7.8,7.6-11.5,13.8-11.5c6.3,0,13.8,3.8,13.8,11.5v9.3
			C-666.9,979.7-674.3,983.3-680.7,983.3z M-674.9,964c0-3.9-3-5.5-5.7-5.5c-2.7,0-5.7,1.5-5.7,5.5v6.4c0,4,3,5.5,5.7,5.5
			c2.7,0,5.7-1.5,5.7-5.5V964z"/>
		<path class="st0" d="M-650.7,983.3c-4.7,0-9.2-0.6-13.9-4.6l4.3-5.8c3.4,3.1,6.6,3.4,10.1,3.4c2.1,0,4.4-1.1,4.4-3
			c0-1.5-1.3-2.6-3.9-3c-5.7-0.8-13.1-1.3-13.1-9.2c0-6.6,5.5-10,12-10c5,0,8.8,0.7,12.7,3.7l-3.8,5.9c-3.2-2.2-6-2.5-8.9-2.5
			c-3.3,0-4.1,1.5-4.1,3c0,1.8,4.3,2.3,6,2.5c6.2,0.8,11.3,2.3,11.3,9.5C-637.6,979.8-643.6,983.3-650.7,983.3z"/>
		<path class="st0" d="M-621.2,983c-6.4,0-11-3.2-11-10.9v-13.7h-3.9v-7h3.9v-9.2h8v9.2h6.9v7h-6.9v12.7c0,3.3,1.6,4.6,4.2,4.6h2.7
			v7.3H-621.2z"/>
		<path class="st0" d="M-601.2,983.1c-5.7-0.4-11.3-3.4-11.3-10.3v-34.2h8v32.7c0,2.7,1.3,4.4,4.5,4.5c0.1,0,0.1,0,0.2,0v7.4
			C-600.2,983.2-600.8,983.1-601.2,983.1z"/>
		<path class="st0" d="M-591.5,947.7c-2.5,0-4.5-2-4.5-4.5s2-4.5,4.5-4.5s4.5,2,4.5,4.5C-587,945.6-589,947.7-591.5,947.7z
			 M-595.5,983v-31.6h8.1V983H-595.5z"/>
		<path class="st0" d="M-553.8,962.9V983h-8.2v-19.5c0-3.6-2-4.8-4-4.8s-4.2,1-7.3,3V983h-8.1v-31.6h8.1v2.5
			c4.3-2.6,6.1-2.8,8.3-2.8C-558.5,951.1-553.8,956-553.8,962.9z"/>
		<path class="st0" d="M-529.6,983l-8.3-12.7l-3.1,3.6v9h-8.1v-44.3h8.1v23.7l9.7-11c1,0-1,0,10.3,0l-11.5,12.9l12.4,18.8H-529.6z"
			/>
	</g>
</g>
</svg>
